{"title":"Up In The Air[2009]DvDrip MXMG","uid":5416380,"size":734961455,"categoryP":"video","categoryS":"movies","magnet":"?xt=urn:btih:5d6c1600166f30440f6b1c7481e8002b763f8561&amp;dn=Up+In+The+Air%5B2009%5DDvDrip+MXMG&amp;tr=udp%3A%2F%2Ftracker.openbittorrent.com%3A80&amp;tr=udp%3A%2F%2Fopen.demonii.com%3A1337&amp;tr=udp%3A%2F%2Ftracker.coppersurfer.tk%3A6969&amp;tr=udp%3A%2F%2Fexodus.desync.com%3A6969","seeders":0,"leechers":0,"uploader":"DragonMF","files":4,"time":1267932700,"description":"\n\nGeneral\nComplete name                    : Up In The Air[2009]DvDrip MXMG\nFormat                           : AVI\nFormat/Info                      : Audio Video Interleave\nFile size                        : 700 MiB\nDuration                         : 1h 49mn\nOverall bit rate                 : 895 Kbps\nWriting application              : VirtualDubMod 1.5.4.1 (build 2178/release)\nWriting library                  : VirtualDubMod build 2178/release\n\nVideo\nID                               : 0\nFormat                           : MPEG-4 Visual\nFormat profile                   : Advanced Simple@L5\nFormat settings, BVOP            : Yes\nFormat settings, QPel            : No\nFormat settings, GMC             : No warppoints\nFormat settings, Matrix          : Custom\nCodec ID                         : XVID\nCodec ID/Hint                    : XviD\nDuration                         : 1h 49mn\nBit rate                         : 760 Kbps\nWidth                            : 608 pixels\nHeight                           : 320 pixels\nDisplay aspect ratio             : 1.900\nFrame rate                       : 23.976 fps\nResolution                       : 8 bits\nColorimetry                      : 4:2:0\nScan type                        : Progressive\nBits/(Pixel*Frame)               : 0.163\nStream size                      : 594 MiB (85%)\nWriting library                  : XviD 1.2.1 (UTC 2008-12-04)\n\nAudio\nID                               : 1\nFormat                           : MPEG Audio\nFormat version                   : Version 1\nFormat profile                   : Layer 3\nMode                             : Joint stereo\nFormat_Settings_ModeExtension    : MS Stereo\nCodec ID                         : 55\nCodec ID/Hint                    : MP3\nDuration                         : 1h 49mn\nBit rate mode                    : Constant\nBit rate                         : 128 Kbps\nChannel(s)                       : 2 channels\nSampling rate                    : 48.0 KHz\nStream size                      : 100 MiB (14%)\nAlignment                        : Aligned on interleaves\nInterleave, duration             : 83 ms (2.00 video frames)\nInterleave, preload duration     : 504 ms\n\nScreens: &lt;a href=&quot;\nhttp://img37.imageshack.us/img37/212/screensdu.jpg&quot; rel=&quot;nofollow&quot; target=&quot;_NEW&quot;&gt;\nhttp://img37.imageshack.us/img37/212/screensdu.jpg&lt;/a&gt;","torrent":{"xt":"urn:btih:5d6c1600166f30440f6b1c7481e8002b763f8561","amp;dn":"Up+In+The+Air%5B2009%5DDvDrip+MXMG","amp;tr":["udp%3A%2F%2Ftracker.openbittorrent.com%3A80","udp%3A%2F%2Fopen.demonii.com%3A1337","udp%3A%2F%2Ftracker.coppersurfer.tk%3A6969","udp%3A%2F%2Fexodus.desync.com%3A6969"],"infoHash":"5d6c1600166f30440f6b1c7481e8002b763f8561","infoHashBuffer":{"type":"Buffer","data":[93,108,22,0,22,111,48,68,15,107,28,116,129,232,0,43,118,63,133,97]},"announce":[],"urlList":[]}}